<svg width="80" height="80" viewBox="0 0 80 80" fill="none" xmlns="http://www.w3.org/2000/svg">
<path d="M11.7188 80H37.8125V51.5625H28.4375V42.1875H37.8125V30.4688C37.8125 24.007 43.0695 18.75 49.5312 18.75H61.25V28.125H51.875C49.2902 28.125 47.1875 30.2277 47.1875 32.8125V42.1875H60.827L59.2645 51.5625H47.1875V80H68.2812C74.743 80 80 74.743 80 68.2812V11.7188C80 5.25696 74.743 0 68.2812 0H11.7188C5.25696 0 0 5.25696 0 11.7188V68.2812C0 74.743 5.25696 80 11.7188 80ZM4.6875 11.7188C4.6875 7.8418 7.8418 4.6875 11.7188 4.6875H68.2812C72.1582 4.6875 75.3125 7.8418 75.3125 11.7188V68.2812C75.3125 72.1582 72.1582 75.3125 68.2812 75.3125H51.875V56.25H63.2355L66.3605 37.5H51.875V32.8125H65.9375V14.0625H49.5312C40.4846 14.0625 33.125 21.4221 33.125 30.4688V37.5H23.75V56.25H33.125V75.3125H11.7188C7.8418 75.3125 4.6875 72.1582 4.6875 68.2812V11.7188Z" fill="#E5FACF"/>
</svg>
