<svg width="80" height="80" viewBox="0 0 80 80" fill="none" xmlns="http://www.w3.org/2000/svg">
<path d="M40 0C18.0157 0 0 18.172 0 40.1562C0 62.0129 17.8516 80 40 80C62.121 80 80 62.0398 80 40.1562C80 18.172 61.9843 0 40 0ZM47.0312 74.6094C44.7815 75.0781 42.3907 75.3125 40 75.3125C37.6093 75.3125 35.2185 75.0781 32.9688 74.6094V63.6407C32.9688 61.0156 33.6719 60.0781 34.6094 58.8123C35.0867 58.2666 35.3748 57.7771 37.5153 54.5471L33.9062 53.9844C24.6246 52.6251 20.9686 47.7966 19.5154 44.0466C17.6404 39.0314 18.6249 32.7496 22.0001 28.7659C22.5159 28.1561 22.9376 27.1246 22.5629 26.0468C21.8591 23.8904 21.9531 20.4688 22.4219 19.1559C24.9072 19.5111 27.4628 21.2915 29.5941 22.5781C30.5762 23.1512 31.0913 22.9999 31.5625 23.0469C33.2751 22.6904 35.9467 21.828 40.047 21.828C42.5781 21.828 45.2502 22.2028 47.8754 22.9529C48.3447 22.9419 49.0991 23.3411 50.4065 22.5781C52.6343 21.2207 55.1031 19.5013 57.5781 19.1559C58.0469 20.4688 58.1409 23.8904 57.4377 26.0468C57.0624 27.1246 57.4841 28.1561 58.0005 28.7659C61.3751 32.7502 62.3596 39.0314 60.4846 44.0466C59.0314 47.7966 55.3754 52.6251 46.0938 53.9844L42.4847 54.5471C44.6973 57.8857 44.9304 58.2861 45.3912 58.8123C46.3281 60.0781 47.0312 61.0156 47.0312 63.6407V74.6094ZM51.7188 73.2501V63.6407C51.7188 60.9686 51.156 59.1876 50.4059 57.8748C57.5311 55.9534 62.594 51.734 64.8438 45.6873C67.2345 39.3127 66.1566 31.7188 62.1716 26.4685C62.8754 23.3282 62.8754 18.3124 61.1877 15.9686C60.4376 14.9377 59.4061 14.375 58.0939 14.375C58.0469 14.375 58.0469 14.375 58.0469 14.375C54.4122 14.5715 51.5515 16.402 48.4845 18.2654C45.672 17.5153 42.8125 17.1405 39.953 17.1405C37.0471 17.1405 34.1406 17.5623 31.5631 18.2654C28.3344 16.3184 25.5011 14.5667 21.7657 14.375C20.5939 14.375 19.5624 14.9377 18.8123 15.9686C17.1252 18.3124 17.1252 23.3282 17.8284 26.4685C13.8434 31.7188 12.7655 39.3591 15.1562 45.6873C17.406 51.734 22.4689 55.9534 29.5941 57.8748C29.0125 58.8922 28.5522 60.2051 28.371 61.9818C26.9318 62.478 25.6836 62.6398 24.5227 62.2986C23.2983 61.9366 22.3444 61.1194 21.5155 59.7253C19.6539 56.5979 16.4832 54.0448 12.8729 54.3768L13.2849 59.046C14.9567 58.8928 16.6205 60.6616 17.4847 62.1198C18.9105 64.5209 20.8313 66.0956 23.1952 66.7938C24.95 67.3108 26.554 67.2986 28.2812 66.9299V73.2501C14.6405 68.4686 4.6875 55.4376 4.6875 40.1562C4.6875 20.7501 20.5939 4.6875 40 4.6875C59.4061 4.6875 75.3125 20.7501 75.3125 40.1562C75.3125 55.4376 65.3595 68.4686 51.7188 73.2501Z" fill="#E5FACF"/>
</svg>
