<svg width="80" height="80" viewBox="0 0 80 80" fill="none" xmlns="http://www.w3.org/2000/svg">
<path d="M68.2812 0H11.7188C5.25696 0 0 5.25696 0 11.7188V68.2812C0 74.743 5.25696 80 11.7188 80H68.2812C74.743 80 80 74.743 80 68.2812V11.7188C80 5.25696 74.743 0 68.2812 0ZM75.3125 68.2812C75.3125 72.1582 72.1582 75.3125 68.2812 75.3125H11.7188C7.8418 75.3125 4.6875 72.1582 4.6875 68.2812V11.7188C4.6875 7.8418 7.8418 4.6875 11.7188 4.6875H68.2812C72.1582 4.6875 75.3125 7.8418 75.3125 11.7188V68.2812Z" fill="#E5FACF"/>
<path d="M14.2188 65.9375H28.2812V32.8125H14.2188V65.9375ZM18.9062 37.5H23.5938V61.25H18.9062V37.5Z" fill="#E5FACF"/>
<path d="M51.7322 32.8125C51.7279 32.8125 51.723 32.8125 51.7188 32.8125C50.0983 32.8125 48.5199 33.0835 47.0312 33.6096V32.8125H32.9688V65.9375H47.0312V49.2188C47.0312 47.9266 48.0829 46.875 49.375 46.875C50.6671 46.875 51.7188 47.9266 51.7188 49.2188V65.9375H65.7812V47.6074C65.7812 40.022 59.6277 32.8198 51.7322 32.8125ZM61.0938 61.25H56.4062V49.2188C56.4062 45.3418 53.252 42.1875 49.375 42.1875C45.498 42.1875 42.3444 45.3418 42.3438 49.2181V61.25H37.6562V37.5H42.3438V42.1906L46.095 39.3732C47.7264 38.1476 49.671 37.5 51.7188 37.5H51.7279C56.7169 37.5049 61.0938 42.2278 61.0938 47.6074V61.25Z" fill="#E5FACF"/>
<path d="M14.2188 28.125H28.2812V14.0625H14.2188V28.125ZM18.9062 18.75H23.5938V23.4375H18.9062V18.75Z" fill="#E5FACF"/>
</svg>
